<svg id="exxeta_logo" data-name="exxeta logo" xmlns="http://www.w3.org/2000/svg" width="1000" height="203" viewBox="0 0 1000 203">
  <path d="M762.3189,133.411,799.6125,148.79c-12.303,35.7556-40.7538,52.6723-74.5871,52.6723-53.8258,0-78.0474-32.2954-78.0474-75.356V73.0493H627.7545V34.9868H646.978V4h45.3675V34.9868h84.9677V73.0493H692.3455v51.9034c0,23.98,14.9943,34.9867,33.8333,34.9867C741.1731,159.9394,754.4281,154.3213,762.3189,133.411ZM1000,4.6136V196.8484H957.7083V174.9337h-1.5378c-9.2273,16.1477-33.8334,26.5284-58.8239,26.5284-57.286,0-92.2727-43.0606-92.2727-100.7311C805.0739,43.83,844.29,0,898.1155,0c30.3731,0,48.4432,12.303,58.055,26.5284h1.5378V4.6136Zm-46.1364,95.733c0-33.9453-20.7613-59.5928-49.981-59.5928S854.286,66.7785,854.286,100.3466c0,35.8362,20.463,59.5928,49.5966,59.5928C933.2833,159.9394,953.8636,136.5854,953.8636,100.3466ZM187.6212,99.1932v14.61H48.0587c1.1631,28.3017,21.53,46.1364,46.1364,46.1364,23.4526,0,39.0265-10.3521,47.6742-29.22l39.9849,13.0719c-14.2254,36.5247-48.0587,57.6705-87.6591,57.6705C39.9849,201.4621,0,160.7083,0,99.5776,0,43.0606,39.9849,0,94.1951,0S187.6212,42.2916,187.6212,99.1932Zm-47.29-18.8391c-4.35-24.5171-21.9147-40.3692-46.1363-40.3692S52.3769,55.8273,49.2121,80.3541ZM614.967,99.1932v14.61H475.4045c1.1631,28.3017,21.53,46.1364,46.1364,46.1364,23.4527,0,39.0268-10.3521,47.6742-29.22L609.2,143.7916c-14.2254,36.5247-48.0587,57.6705-87.6591,57.6705-54.1525,0-94.1951-40.7538-94.1951-101.8845C427.3458,42.6761,467.3307,0,521.5409,0S614.967,41.9072,614.967,99.1932Zm-47.29-18.8391c-4.35-24.5171-21.9148-40.3692-46.1364-40.3692S479.7225,55.8273,476.558,80.3541Zm-206.7395,49.27a.3761.3761,0,0,1-.384-.3842c14.5931-20.361,26.114-32.27,43.7794-32.27V55.863c-34.5627,0-56.4524,21.5134-73.35,43.7953l-22.6577-22.666C330.7305,59.9893,351.7211,38.7943,351.7211,4H310.2458c0,19.1461-11.5209,31.1178-29.9544,45.7162L261.09,30.5078C257.004,26.42,250.3371,15.141,250.3371,4H208.4777c0,23.8186,12.673,44.9479,23.4259,55.7046l13.4411,13.446c-21.5058,16.5193-41.0913,37.6486-41.0913,71.0714h41.0913c0-17.7634,10.4993-29.6762,28.8022-43.027l33.0266,32.6544c-13.057,17.6718-24.9619,28.0444-42.6273,28.0444V203c33.4106,0,54.9163-18.44,71.8137-39.57C351.7211,179.95,376.683,203,406.2534,203V161.8938C390.8922,161.8938,370.5386,139.9961,360.9378,129.6236Z" fill="#fff"/>
</svg>
